<svg xmlns="http://www.w3.org/2000/svg" width="106" height="17" fill="none" viewBox="0 0 106 17">
  <g clip-path="url(#a)">
    <path fill="#FF001F" d="M8.626.021c.151.045.27.134.351.26.025.04.402.838.84 1.772l1.14 2.441.35.744.29.045c4.853.75 4.846.748 4.919.775a.638.638 0 0 1 .328.304c.1.206.09.43-.024.632-.03.051-.592.636-1.916 1.99-1.678 1.715-1.874 1.92-1.867 1.951.002.02.051.31.105.647l.205 1.245a1160.82 1160.82 0 0 0 .47 2.859c.12.712.122.768.04.946-.135.3-.473.445-.758.324-.041-.018-1.105-.6-2.363-1.295L8.448 14.4l-1.062.584-2.291 1.262c-.677.372-1.26.688-1.296.7a.656.656 0 0 1-.37-.002.543.543 0 0 1-.256-.175.62.62 0 0 1-.16-.426c0-.045.054-.406.12-.804l.49-2.984.202-1.227.068-.422L2.014 8.97C.74 7.658.122 7.012.094 6.965a.628.628 0 0 1-.09-.294c-.021-.29.167-.574.428-.65.043-.013.501-.086 1.018-.164l1.883-.278 1.398-.209.674-.098c.12-.017.225-.038.234-.046.008-.009.527-1.112 1.154-2.45A157.84 157.84 0 0 1 7.979.266a.646.646 0 0 1 .278-.224.669.669 0 0 1 .369-.02Z"/>
  </g>
  <g clip-path="url(#b)">
    <path fill="#FF001F" d="M31.179.021c.152.045.27.134.351.26.025.04.402.838.84 1.772.435.933.95 2.032 1.141 2.441l.349.744.29.045c4.853.75 4.846.748 4.92.775a.638.638 0 0 1 .327.304.66.66 0 0 1-.024.632c-.03.051-.592.636-1.916 1.99-1.678 1.715-1.874 1.92-1.867 1.951.002.02.051.31.105.647l.205 1.245a1000.47 1000.47 0 0 0 .47 2.859c.12.712.122.768.04.946-.134.3-.473.445-.758.324-.041-.018-1.105-.6-2.363-1.295l-2.287-1.26-1.063.584-2.291 1.262c-.677.372-1.26.688-1.295.7a.657.657 0 0 1-.37-.002.543.543 0 0 1-.257-.175.62.62 0 0 1-.16-.426c0-.045.055-.406.12-.804l.49-2.984.202-1.227.069-.422-1.88-1.936c-1.275-1.313-1.892-1.959-1.92-2.006a.627.627 0 0 1-.09-.294c-.02-.29.167-.574.428-.65.043-.013.501-.086 1.018-.164l1.883-.278 1.398-.209.674-.098c.12-.017.225-.038.234-.046.008-.009.527-1.112 1.154-2.45a157.84 157.84 0 0 1 1.186-2.51.645.645 0 0 1 .278-.224.669.669 0 0 1 .369-.02Z"/>
  </g>
  <g clip-path="url(#c)">
    <path fill="#FF001F" d="M76.285.021a.615.615 0 0 1 .352.26c.025.04.401.838.839 1.772l1.142 2.441.348.744.291.045c4.852.75 4.846.748 4.919.775a.637.637 0 0 1 .327.304c.1.206.091.43-.023.632-.03.051-.593.636-1.917 1.99-1.678 1.715-1.873 1.92-1.867 1.951.003.02.052.31.106.647l.205 1.245a1000.47 1000.47 0 0 0 .47 2.859c.12.712.122.768.04.946-.135.3-.473.445-.759.324-.04-.018-1.105-.6-2.362-1.295l-2.288-1.26-1.063.584-2.29 1.262c-.677.372-1.26.688-1.296.7a.656.656 0 0 1-.37-.002.543.543 0 0 1-.256-.175.62.62 0 0 1-.16-.426c0-.045.054-.406.119-.804l.49-2.984.202-1.227.069-.422-1.88-1.936c-1.275-1.313-1.892-1.959-1.92-2.006a.627.627 0 0 1-.09-.294c-.02-.29.167-.574.429-.65.042-.013.5-.086 1.017-.164l1.884-.278 1.398-.209.674-.098c.12-.017.224-.038.234-.046.007-.009.527-1.112 1.153-2.45A146.19 146.19 0 0 1 75.64.266a.645.645 0 0 1 .277-.224.669.669 0 0 1 .37-.02Z"/>
  </g>
  <g clip-path="url(#d)">
    <path fill="#FF001F" d="M97.71.021a.608.608 0 0 1 .352.26c.025.04.402.838.84 1.772.435.933.95 2.032 1.141 2.441l.349.744.291.045c4.852.75 4.845.748 4.918.775a.64.64 0 0 1 .328.304.66.66 0 0 1-.024.632c-.03.051-.592.636-1.916 1.99-1.678 1.715-1.874 1.92-1.867 1.951.002.02.051.31.105.647l.205 1.245.238 1.447.233 1.412c.119.712.121.768.039.946-.134.3-.473.445-.758.324-.041-.018-1.105-.6-2.363-1.295l-2.287-1.26-1.063.584-2.291 1.262c-.677.372-1.26.688-1.295.7a.656.656 0 0 1-.37-.002.543.543 0 0 1-.257-.175.62.62 0 0 1-.16-.426c0-.045.055-.406.12-.804l.49-2.984.202-1.227.068-.422L91.1 8.971c-1.275-1.313-1.892-1.959-1.92-2.006a.626.626 0 0 1-.09-.294c-.02-.29.167-.574.428-.65.043-.013.501-.086 1.018-.164l1.883-.278 1.398-.209.674-.098c.12-.017.225-.038.234-.046.008-.009.527-1.112 1.154-2.45a157.84 157.84 0 0 1 1.186-2.51.645.645 0 0 1 .278-.224.669.669 0 0 1 .369-.02Z"/>
  </g>
  <g clip-path="url(#e)">
    <path fill="#FF001F" d="M53.732.021c.152.045.27.134.351.26.026.04.402.838.84 1.772l1.141 2.441.35.744.29.045c4.852.75 4.846.748 4.918.775a.637.637 0 0 1 .328.304.66.66 0 0 1-.024.632c-.03.051-.592.636-1.916 1.99-1.678 1.715-1.874 1.92-1.867 1.951l.106.647.204 1.245a1000.47 1000.47 0 0 0 .471 2.859c.119.712.121.768.04.946-.135.3-.474.445-.759.324-.04-.018-1.105-.6-2.363-1.295l-2.287-1.26-1.063.584-2.291 1.262c-.677.372-1.26.688-1.295.7a.657.657 0 0 1-.37-.002.543.543 0 0 1-.257-.175.62.62 0 0 1-.16-.426c0-.045.055-.406.12-.804l.49-2.984.202-1.227.069-.422-1.88-1.936c-1.275-1.313-1.892-1.959-1.92-2.006a.627.627 0 0 1-.09-.294c-.02-.29.167-.574.429-.65.042-.013.5-.086 1.017-.164l1.883-.278 1.398-.209.674-.098c.12-.017.225-.038.234-.046.008-.009.528-1.112 1.154-2.45.625-1.34 1.159-2.468 1.187-2.51a.645.645 0 0 1 .277-.224.669.669 0 0 1 .369-.02Z"/>
  </g>
  <defs>
    <clipPath id="a">
      <path fill="#fff" d="M16.915 0H0v17h16.915z"/>
    </clipPath>
    <clipPath id="b">
      <path fill="#fff" d="M39.468 0H22.553v17h16.915z"/>
    </clipPath>
    <clipPath id="c">
      <path fill="#fff" d="M84.575 0H67.66v17h16.915z"/>
    </clipPath>
    <clipPath id="d">
      <path fill="#fff" d="M106 0H89.085v17H106z"/>
    </clipPath>
    <clipPath id="e">
      <path fill="#fff" d="M62.021 0H45.106v17h16.915z"/>
    </clipPath>
  </defs>
</svg>
