<svg xmlns="http://www.w3.org/2000/svg" width="94" height="18" fill="none" viewBox="0 0 94 18">
  <g clip-path="url(#a)">
    <path fill="#000" d="M7.649.254a.55.55 0 0 1 .312.26c.022.04.356.837.744 1.77l1.012 2.442.31.744.257.045c4.303.75 4.298.748 4.362.775a.599.599 0 0 1 .29.304.73.73 0 0 1-.02.632c-.027.052-.525.636-1.7 1.99-1.488 1.715-1.661 1.92-1.655 1.951l.093.647c.05.337.13.897.182 1.245a1223.629 1223.629 0 0 0 .417 2.859c.106.712.108.768.035.946-.12.3-.42.445-.672.324-.037-.018-.98-.6-2.096-1.295l-2.028-1.26-.942.584-2.032 1.262c-.6.373-1.117.688-1.149.7a.485.485 0 0 1-.555-.178.668.668 0 0 1-.142-.425c0-.044.048-.406.105-.804l.435-2.984c.066-.444.145-.996.18-1.227l.06-.422-1.666-1.936C.656 7.89.108 7.244.083 7.197a.686.686 0 0 1-.08-.294c-.018-.29.148-.574.38-.65.038-.013.444-.086.903-.164l1.67-.278 1.24-.208c.222-.037.49-.081.597-.1A.98.98 0 0 0 5 5.458c.007-.008.468-1.112 1.023-2.45C6.578 1.668 7.051.54 7.076.498a.592.592 0 0 1 .246-.224.53.53 0 0 1 .327-.02Z"/>
  </g>
  <g clip-path="url(#b)">
    <path fill="#000" d="M27.649.254a.55.55 0 0 1 .312.26c.022.04.356.837.744 1.77l1.012 2.442.31.744.257.045c4.303.75 4.298.748 4.362.775a.599.599 0 0 1 .29.304.73.73 0 0 1-.02.632c-.027.052-.525.636-1.7 1.99-1.488 1.715-1.661 1.92-1.655 1.951l.093.647c.05.337.13.897.182 1.245a1223.629 1223.629 0 0 0 .417 2.859c.106.712.108.768.035.946-.12.3-.42.445-.672.324-.037-.018-.98-.6-2.096-1.295l-2.028-1.26-.942.584-2.032 1.262c-.6.373-1.117.688-1.149.7a.484.484 0 0 1-.555-.178.668.668 0 0 1-.142-.425c0-.044.048-.406.105-.804l.435-2.984c.066-.444.145-.996.18-1.227l.06-.422-1.666-1.936c-1.13-1.313-1.678-1.959-1.703-2.006a.687.687 0 0 1-.08-.294c-.018-.29.148-.574.38-.65.038-.013.444-.086.903-.164l1.67-.278 1.24-.208c.222-.037.49-.081.597-.1A.98.98 0 0 0 25 5.458c.007-.008.468-1.112 1.023-2.45.555-1.34 1.028-2.468 1.053-2.51a.592.592 0 0 1 .246-.224.53.53 0 0 1 .327-.02Z"/>
  </g>
  <g clip-path="url(#c)">
    <path fill="#000" d="M67.649.254a.55.55 0 0 1 .311.26c.023.04.357.837.745 1.77l1.012 2.442.31.744.257.045c4.303.75 4.298.748 4.362.775a.599.599 0 0 1 .29.304.73.73 0 0 1-.02.632c-.027.052-.525.636-1.7 1.99-1.488 1.715-1.661 1.92-1.655 1.951l.093.647c.05.337.13.897.182 1.245a1045.496 1045.496 0 0 0 .417 2.859c.106.712.108.768.035.946-.12.3-.42.445-.672.324-.037-.018-.98-.6-2.096-1.295l-2.028-1.26-.942.584-2.032 1.262c-.6.373-1.117.688-1.149.7a.484.484 0 0 1-.555-.178.668.668 0 0 1-.142-.425c0-.044.048-.406.105-.804l.435-2.984c.066-.444.145-.996.18-1.227l.06-.422-1.666-1.936c-1.13-1.313-1.678-1.959-1.703-2.006a.686.686 0 0 1-.08-.294c-.018-.29.148-.574.38-.65.038-.013.444-.086.902-.164l1.67-.278 1.24-.208c.223-.037.491-.081.598-.1A.98.98 0 0 0 65 5.458c.007-.008.468-1.112 1.023-2.45.555-1.34 1.028-2.468 1.053-2.51a.592.592 0 0 1 .246-.224.53.53 0 0 1 .327-.02Z"/>
  </g>
  <g clip-path="url(#d)">
    <path fill="#000" d="M86.649.254a.55.55 0 0 1 .311.26c.023.04.357.837.745 1.77l1.012 2.442.31.744.257.045c4.303.75 4.298.748 4.362.775a.599.599 0 0 1 .29.304.73.73 0 0 1-.02.632c-.027.052-.525.636-1.7 1.99-1.488 1.715-1.661 1.92-1.655 1.951l.093.647c.05.337.13.897.182 1.245a1045.496 1045.496 0 0 0 .417 2.859c.106.712.108.768.035.946-.12.3-.42.445-.672.324-.037-.018-.98-.6-2.096-1.295l-2.028-1.26-.942.584-2.032 1.262c-.6.373-1.117.688-1.149.7a.484.484 0 0 1-.555-.178.668.668 0 0 1-.142-.425c0-.044.048-.406.105-.804l.435-2.984c.066-.444.145-.996.18-1.227l.06-.422-1.666-1.936c-1.13-1.313-1.678-1.959-1.703-2.006a.686.686 0 0 1-.08-.294c-.018-.29.148-.574.38-.65.038-.013.444-.086.903-.164l1.67-.278 1.24-.208c.222-.037.49-.081.597-.1A.98.98 0 0 0 84 5.458c.007-.008.468-1.112 1.023-2.45.555-1.34 1.028-2.468 1.053-2.51a.592.592 0 0 1 .246-.224.53.53 0 0 1 .327-.02Z"/>
  </g>
  <g clip-path="url(#e)">
    <path fill="#000" d="M47.649.254a.55.55 0 0 1 .312.26c.022.04.356.837.744 1.77l1.012 2.442.31.744.257.045c4.303.75 4.298.748 4.362.775a.599.599 0 0 1 .29.304.73.73 0 0 1-.02.632c-.027.052-.525.636-1.7 1.99-1.488 1.715-1.661 1.92-1.655 1.951l.093.647c.05.337.13.897.182 1.245a1223.629 1223.629 0 0 0 .417 2.859c.106.712.108.768.035.946-.12.3-.42.445-.672.324-.037-.018-.98-.6-2.096-1.295l-2.028-1.26-.942.584-2.032 1.262c-.6.373-1.117.688-1.149.7a.484.484 0 0 1-.555-.178.668.668 0 0 1-.142-.425c0-.044.048-.406.105-.804l.435-2.984c.066-.444.145-.996.18-1.227l.06-.422-1.666-1.936c-1.13-1.313-1.678-1.959-1.703-2.006a.687.687 0 0 1-.08-.294c-.018-.29.148-.574.38-.65.038-.013.444-.086.903-.164l1.67-.278 1.24-.208c.222-.037.49-.081.597-.1A.98.98 0 0 0 45 5.458c.007-.008.468-1.112 1.023-2.45.555-1.34 1.028-2.468 1.053-2.51a.592.592 0 0 1 .246-.224.53.53 0 0 1 .327-.02Z"/>
  </g>
  <defs>
    <clipPath id="a">
      <path fill="#fff" d="M15 .233H0v17h15z"/>
    </clipPath>
    <clipPath id="b">
      <path fill="#fff" d="M35 .233H20v17h15z"/>
    </clipPath>
    <clipPath id="c">
      <path fill="#fff" d="M75 .233H60v17h15z"/>
    </clipPath>
    <clipPath id="d">
      <path fill="#fff" d="M94 .233H79v17h15z"/>
    </clipPath>
    <clipPath id="e">
      <path fill="#fff" d="M55 .233H40v17h15z"/>
    </clipPath>
  </defs>
</svg>
